<mxfile host="Electron" modified="2024-09-13T16:41:21.350Z" agent="Mozilla/5.0 (Windows NT 10.0; Win64; x64) AppleWebKit/537.36 (KHTML, like Gecko) draw.io/22.1.21 Chrome/120.0.6099.109 Electron/28.1.0 Safari/537.36" etag="mXNfmdtk4C8pUAp0G9CZ" version="22.1.21" type="device">
  <diagram name="Page-1" id="HVcWqQZKkqyeEl_rufU5">
    <mxGraphModel dx="1050" dy="629" grid="1" gridSize="10" guides="1" tooltips="1" connect="1" arrows="1" fold="1" page="1" pageScale="1" pageWidth="850" pageHeight="1100" math="0" shadow="0">
      <root>
        <mxCell id="0" />
        <mxCell id="1" parent="0" />
        <mxCell id="wUP7L1_0GLe0fMAEF5Q9-9" style="edgeStyle=orthogonalEdgeStyle;rounded=0;orthogonalLoop=1;jettySize=auto;html=1;exitX=1;exitY=0.5;exitDx=0;exitDy=0;entryX=0;entryY=0.5;entryDx=0;entryDy=0;" edge="1" parent="1" source="wUP7L1_0GLe0fMAEF5Q9-1" target="wUP7L1_0GLe0fMAEF5Q9-2">
          <mxGeometry relative="1" as="geometry" />
        </mxCell>
        <mxCell id="wUP7L1_0GLe0fMAEF5Q9-10" value="Wifi / SPI ?" style="edgeLabel;html=1;align=center;verticalAlign=middle;resizable=0;points=[];" vertex="1" connectable="0" parent="wUP7L1_0GLe0fMAEF5Q9-9">
          <mxGeometry x="-0.021" y="1" relative="1" as="geometry">
            <mxPoint y="-9" as="offset" />
          </mxGeometry>
        </mxCell>
        <mxCell id="wUP7L1_0GLe0fMAEF5Q9-1" value="ESP32 - CAM" style="rounded=0;whiteSpace=wrap;html=1;" vertex="1" parent="1">
          <mxGeometry x="120" y="180" width="120" height="60" as="geometry" />
        </mxCell>
        <mxCell id="wUP7L1_0GLe0fMAEF5Q9-6" style="edgeStyle=orthogonalEdgeStyle;rounded=0;orthogonalLoop=1;jettySize=auto;html=1;exitX=1;exitY=0.5;exitDx=0;exitDy=0;entryX=0;entryY=0.5;entryDx=0;entryDy=0;" edge="1" parent="1" source="wUP7L1_0GLe0fMAEF5Q9-2" target="wUP7L1_0GLe0fMAEF5Q9-5">
          <mxGeometry relative="1" as="geometry" />
        </mxCell>
        <mxCell id="wUP7L1_0GLe0fMAEF5Q9-11" style="edgeStyle=orthogonalEdgeStyle;rounded=0;orthogonalLoop=1;jettySize=auto;html=1;exitX=0;exitY=0.5;exitDx=0;exitDy=0;entryX=1;entryY=0.5;entryDx=0;entryDy=0;" edge="1" parent="1" source="wUP7L1_0GLe0fMAEF5Q9-2" target="wUP7L1_0GLe0fMAEF5Q9-1">
          <mxGeometry relative="1" as="geometry" />
        </mxCell>
        <mxCell id="wUP7L1_0GLe0fMAEF5Q9-2" value="ESP32 - xxx" style="rounded=0;whiteSpace=wrap;html=1;" vertex="1" parent="1">
          <mxGeometry x="450" y="180" width="120" height="60" as="geometry" />
        </mxCell>
        <mxCell id="wUP7L1_0GLe0fMAEF5Q9-3" value="(Outdoor Unit)" style="text;html=1;strokeColor=none;fillColor=none;align=center;verticalAlign=middle;whiteSpace=wrap;rounded=0;" vertex="1" parent="1">
          <mxGeometry x="140" y="130" width="90" height="30" as="geometry" />
        </mxCell>
        <mxCell id="wUP7L1_0GLe0fMAEF5Q9-4" value="(Monitor Unit)" style="text;html=1;strokeColor=none;fillColor=none;align=center;verticalAlign=middle;whiteSpace=wrap;rounded=0;" vertex="1" parent="1">
          <mxGeometry x="460" y="120" width="100" height="30" as="geometry" />
        </mxCell>
        <mxCell id="wUP7L1_0GLe0fMAEF5Q9-7" style="edgeStyle=orthogonalEdgeStyle;rounded=0;orthogonalLoop=1;jettySize=auto;html=1;exitX=0;exitY=0.5;exitDx=0;exitDy=0;entryX=1;entryY=0.5;entryDx=0;entryDy=0;" edge="1" parent="1" source="wUP7L1_0GLe0fMAEF5Q9-5" target="wUP7L1_0GLe0fMAEF5Q9-2">
          <mxGeometry relative="1" as="geometry" />
        </mxCell>
        <mxCell id="wUP7L1_0GLe0fMAEF5Q9-8" value="SPI" style="edgeLabel;html=1;align=center;verticalAlign=middle;resizable=0;points=[];" vertex="1" connectable="0" parent="wUP7L1_0GLe0fMAEF5Q9-7">
          <mxGeometry x="0.18" y="-2" relative="1" as="geometry">
            <mxPoint as="offset" />
          </mxGeometry>
        </mxCell>
        <mxCell id="wUP7L1_0GLe0fMAEF5Q9-5" value="TFT LCD" style="rounded=0;whiteSpace=wrap;html=1;" vertex="1" parent="1">
          <mxGeometry x="650" y="180" width="120" height="60" as="geometry" />
        </mxCell>
        <mxCell id="wUP7L1_0GLe0fMAEF5Q9-12" value="Modem" style="ellipse;shape=cloud;whiteSpace=wrap;html=1;" vertex="1" parent="1">
          <mxGeometry x="350" y="20" width="120" height="80" as="geometry" />
        </mxCell>
        <mxCell id="wUP7L1_0GLe0fMAEF5Q9-13" style="edgeStyle=orthogonalEdgeStyle;rounded=0;orthogonalLoop=1;jettySize=auto;html=1;exitX=1;exitY=0;exitDx=0;exitDy=0;entryX=0.13;entryY=0.77;entryDx=0;entryDy=0;entryPerimeter=0;" edge="1" parent="1" source="wUP7L1_0GLe0fMAEF5Q9-1" target="wUP7L1_0GLe0fMAEF5Q9-12">
          <mxGeometry relative="1" as="geometry" />
        </mxCell>
        <mxCell id="wUP7L1_0GLe0fMAEF5Q9-14" value="Port 80" style="edgeLabel;html=1;align=center;verticalAlign=middle;resizable=0;points=[];" vertex="1" connectable="0" parent="wUP7L1_0GLe0fMAEF5Q9-13">
          <mxGeometry x="-0.0393" relative="1" as="geometry">
            <mxPoint as="offset" />
          </mxGeometry>
        </mxCell>
      </root>
    </mxGraphModel>
  </diagram>
</mxfile>
